<mxfile host="app.diagrams.net" agent="Mozilla/5.0 (Windows NT 10.0; Win64; x64) AppleWebKit/537.36 (KHTML, like Gecko) Chrome/130.0.0.0 Safari/537.36" version="24.8.3">
  <diagram name="Page-1" id="Y77aju6TSqDfgTuME1C6">
    <mxGraphModel dx="1400" dy="753" grid="0" gridSize="10" guides="1" tooltips="1" connect="1" arrows="1" fold="1" page="1" pageScale="1" pageWidth="1600" pageHeight="900" background="#000000" math="0" shadow="0">
      <root>
        <mxCell id="0" />
        <mxCell id="1" parent="0" />
        <mxCell id="RywcK7QeIOkxBo_Rkbx2-1" value="" style="edgeStyle=orthogonalEdgeStyle;rounded=0;orthogonalLoop=1;jettySize=auto;html=1;strokeWidth=2;strokeColor=#FFFFFF;" edge="1" parent="1" source="RywcK7QeIOkxBo_Rkbx2-2" target="RywcK7QeIOkxBo_Rkbx2-4">
          <mxGeometry relative="1" as="geometry" />
        </mxCell>
        <mxCell id="RywcK7QeIOkxBo_Rkbx2-2" value="" style="ellipse;shape=doubleEllipse;html=1;dashed=0;whiteSpace=wrap;aspect=fixed;" vertex="1" parent="1">
          <mxGeometry x="140" y="1039" width="60" height="60" as="geometry" />
        </mxCell>
        <mxCell id="RywcK7QeIOkxBo_Rkbx2-3" value="" style="edgeStyle=orthogonalEdgeStyle;rounded=0;orthogonalLoop=1;jettySize=auto;html=1;strokeWidth=2;strokeColor=#FFFFFF;" edge="1" parent="1" source="RywcK7QeIOkxBo_Rkbx2-4" target="RywcK7QeIOkxBo_Rkbx2-7">
          <mxGeometry relative="1" as="geometry" />
        </mxCell>
        <mxCell id="RywcK7QeIOkxBo_Rkbx2-4" value="&lt;font face=&quot;Helvetica&quot; style=&quot;font-size: 14px;&quot;&gt;Open App&lt;/font&gt;" style="whiteSpace=wrap;html=1;dashed=0;" vertex="1" parent="1">
          <mxGeometry x="250" y="1039" width="120" height="60" as="geometry" />
        </mxCell>
        <mxCell id="RywcK7QeIOkxBo_Rkbx2-5" value="" style="edgeStyle=orthogonalEdgeStyle;rounded=0;orthogonalLoop=1;jettySize=auto;html=1;strokeWidth=2;strokeColor=#FCFCFC;" edge="1" parent="1" source="RywcK7QeIOkxBo_Rkbx2-7" target="RywcK7QeIOkxBo_Rkbx2-9">
          <mxGeometry relative="1" as="geometry">
            <Array as="points">
              <mxPoint x="510" y="959" />
            </Array>
          </mxGeometry>
        </mxCell>
        <mxCell id="RywcK7QeIOkxBo_Rkbx2-6" value="" style="edgeStyle=orthogonalEdgeStyle;rounded=0;orthogonalLoop=1;jettySize=auto;html=1;strokeColor=#FFFFFF;strokeWidth=2;" edge="1" parent="1" source="RywcK7QeIOkxBo_Rkbx2-7" target="RywcK7QeIOkxBo_Rkbx2-11">
          <mxGeometry relative="1" as="geometry">
            <Array as="points">
              <mxPoint x="510" y="1159" />
            </Array>
          </mxGeometry>
        </mxCell>
        <mxCell id="RywcK7QeIOkxBo_Rkbx2-40" style="edgeStyle=orthogonalEdgeStyle;rounded=0;orthogonalLoop=1;jettySize=auto;html=1;exitX=1;exitY=0.5;exitDx=0;exitDy=0;entryX=0.5;entryY=0;entryDx=0;entryDy=0;strokeColor=#fcfcfc;" edge="1" parent="1" source="RywcK7QeIOkxBo_Rkbx2-7" target="RywcK7QeIOkxBo_Rkbx2-13">
          <mxGeometry relative="1" as="geometry" />
        </mxCell>
        <mxCell id="RywcK7QeIOkxBo_Rkbx2-41" value="&lt;font style=&quot;font-size: 18px;&quot;&gt;For first time user&lt;/font&gt;" style="edgeLabel;html=1;align=center;verticalAlign=middle;resizable=0;points=[];" vertex="1" connectable="0" parent="RywcK7QeIOkxBo_Rkbx2-40">
          <mxGeometry x="0.0126" y="4" relative="1" as="geometry">
            <mxPoint as="offset" />
          </mxGeometry>
        </mxCell>
        <mxCell id="RywcK7QeIOkxBo_Rkbx2-7" value="&lt;font style=&quot;font-size: 14px;&quot;&gt;Parents Create Profiles&amp;nbsp;&lt;/font&gt;" style="whiteSpace=wrap;html=1;dashed=0;" vertex="1" parent="1">
          <mxGeometry x="450" y="1039" width="120" height="60" as="geometry" />
        </mxCell>
        <mxCell id="RywcK7QeIOkxBo_Rkbx2-8" value="" style="edgeStyle=orthogonalEdgeStyle;rounded=0;orthogonalLoop=1;jettySize=auto;html=1;strokeWidth=2;strokeColor=#FFFFFF;" edge="1" parent="1" source="RywcK7QeIOkxBo_Rkbx2-9" target="RywcK7QeIOkxBo_Rkbx2-27">
          <mxGeometry relative="1" as="geometry" />
        </mxCell>
        <mxCell id="RywcK7QeIOkxBo_Rkbx2-9" value="&lt;font style=&quot;font-size: 14px;&quot;&gt;Parents Login&lt;/font&gt;" style="whiteSpace=wrap;html=1;dashed=0;" vertex="1" parent="1">
          <mxGeometry x="640" y="929" width="120" height="60" as="geometry" />
        </mxCell>
        <mxCell id="RywcK7QeIOkxBo_Rkbx2-10" value="" style="edgeStyle=orthogonalEdgeStyle;rounded=0;orthogonalLoop=1;jettySize=auto;html=1;strokeWidth=2;strokeColor=#FFFFFF;entryX=0;entryY=0.75;entryDx=0;entryDy=0;" edge="1" parent="1" source="RywcK7QeIOkxBo_Rkbx2-11" target="RywcK7QeIOkxBo_Rkbx2-18">
          <mxGeometry relative="1" as="geometry">
            <mxPoint x="790" y="1290" as="targetPoint" />
            <Array as="points">
              <mxPoint x="700" y="1280" />
              <mxPoint x="1000" y="1280" />
              <mxPoint x="1000" y="1174" />
            </Array>
          </mxGeometry>
        </mxCell>
        <mxCell id="RywcK7QeIOkxBo_Rkbx2-11" value="&lt;font style=&quot;font-size: 14px;&quot;&gt;Child Login&lt;/font&gt;" style="whiteSpace=wrap;html=1;dashed=0;fontColor=default;" vertex="1" parent="1">
          <mxGeometry x="640" y="1129" width="120" height="60" as="geometry" />
        </mxCell>
        <mxCell id="RywcK7QeIOkxBo_Rkbx2-12" value="" style="edgeStyle=orthogonalEdgeStyle;rounded=0;orthogonalLoop=1;jettySize=auto;html=1;strokeColor=#FFFFFF;strokeWidth=2;" edge="1" parent="1" source="RywcK7QeIOkxBo_Rkbx2-13" target="RywcK7QeIOkxBo_Rkbx2-18">
          <mxGeometry relative="1" as="geometry" />
        </mxCell>
        <mxCell id="RywcK7QeIOkxBo_Rkbx2-13" value="&lt;font style=&quot;font-size: 14px;&quot;&gt;Parents fill initial assesments&lt;/font&gt;" style="whiteSpace=wrap;html=1;dashed=0;fontColor=default;" vertex="1" parent="1">
          <mxGeometry x="840" y="1129" width="120" height="60" as="geometry" />
        </mxCell>
        <mxCell id="RywcK7QeIOkxBo_Rkbx2-14" value="" style="edgeStyle=orthogonalEdgeStyle;rounded=0;orthogonalLoop=1;jettySize=auto;html=1;strokeColor=#FFFFFF;strokeWidth=2;" edge="1" parent="1" source="RywcK7QeIOkxBo_Rkbx2-18" target="RywcK7QeIOkxBo_Rkbx2-19">
          <mxGeometry relative="1" as="geometry">
            <Array as="points">
              <mxPoint x="1100" y="1059" />
            </Array>
          </mxGeometry>
        </mxCell>
        <mxCell id="RywcK7QeIOkxBo_Rkbx2-15" value="" style="edgeStyle=orthogonalEdgeStyle;rounded=0;orthogonalLoop=1;jettySize=auto;html=1;strokeWidth=2;strokeColor=#FFFFFF;" edge="1" parent="1" source="RywcK7QeIOkxBo_Rkbx2-18" target="RywcK7QeIOkxBo_Rkbx2-21">
          <mxGeometry relative="1" as="geometry" />
        </mxCell>
        <mxCell id="RywcK7QeIOkxBo_Rkbx2-16" value="" style="edgeStyle=orthogonalEdgeStyle;rounded=0;orthogonalLoop=1;jettySize=auto;html=1;strokeColor=#FFFFFF;strokeWidth=2;entryX=0;entryY=0.5;entryDx=0;entryDy=0;" edge="1" parent="1" source="RywcK7QeIOkxBo_Rkbx2-18" target="RywcK7QeIOkxBo_Rkbx2-23">
          <mxGeometry relative="1" as="geometry">
            <Array as="points">
              <mxPoint x="1128" y="1290" />
            </Array>
          </mxGeometry>
        </mxCell>
        <mxCell id="RywcK7QeIOkxBo_Rkbx2-17" value="" style="edgeStyle=orthogonalEdgeStyle;rounded=0;orthogonalLoop=1;jettySize=auto;html=1;strokeWidth=2;strokeColor=#FFFFFF;" edge="1" parent="1" source="RywcK7QeIOkxBo_Rkbx2-18" target="RywcK7QeIOkxBo_Rkbx2-21">
          <mxGeometry relative="1" as="geometry" />
        </mxCell>
        <mxCell id="RywcK7QeIOkxBo_Rkbx2-67" style="edgeStyle=orthogonalEdgeStyle;rounded=0;orthogonalLoop=1;jettySize=auto;html=1;exitX=0;exitY=1;exitDx=0;exitDy=0;entryX=0.5;entryY=1;entryDx=0;entryDy=0;strokeWidth=2;strokeColor=#FFFFFF;" edge="1" parent="1" source="RywcK7QeIOkxBo_Rkbx2-18" target="RywcK7QeIOkxBo_Rkbx2-51">
          <mxGeometry relative="1" as="geometry">
            <Array as="points">
              <mxPoint x="1040" y="1560" />
              <mxPoint x="1803" y="1560" />
            </Array>
          </mxGeometry>
        </mxCell>
        <mxCell id="RywcK7QeIOkxBo_Rkbx2-18" value="&lt;font style=&quot;font-size: 14px;&quot;&gt;Home Screen/ Dashboad&lt;/font&gt;" style="whiteSpace=wrap;html=1;dashed=0;fontColor=default;" vertex="1" parent="1">
          <mxGeometry x="1040" y="1129" width="120" height="60" as="geometry" />
        </mxCell>
        <mxCell id="RywcK7QeIOkxBo_Rkbx2-42" value="&lt;font style=&quot;font-size: 14px;&quot;&gt;After Completing or pausing the session&lt;/font&gt;" style="edgeStyle=orthogonalEdgeStyle;rounded=0;orthogonalLoop=1;jettySize=auto;html=1;strokeColor=#FF0000;strokeWidth=3;" edge="1" parent="1" source="RywcK7QeIOkxBo_Rkbx2-19">
          <mxGeometry x="-0.0364" y="-40" relative="1" as="geometry">
            <mxPoint x="1160" y="1129" as="targetPoint" />
            <Array as="points">
              <mxPoint x="1120" y="1030" />
              <mxPoint x="1120" y="1095" />
              <mxPoint x="1160" y="1095" />
            </Array>
            <mxPoint as="offset" />
          </mxGeometry>
        </mxCell>
        <mxCell id="RywcK7QeIOkxBo_Rkbx2-19" value="&lt;font style=&quot;font-size: 14px;&quot;&gt;Learning Modules&lt;/font&gt;&lt;div&gt;&lt;font size=&quot;3&quot;&gt;based on ASD level&lt;/font&gt;&lt;/div&gt;" style="whiteSpace=wrap;html=1;dashed=0;fontColor=default;" vertex="1" parent="1">
          <mxGeometry x="1230" y="989" width="140" height="80" as="geometry" />
        </mxCell>
        <mxCell id="RywcK7QeIOkxBo_Rkbx2-20" value="" style="edgeStyle=orthogonalEdgeStyle;rounded=0;orthogonalLoop=1;jettySize=auto;html=1;strokeWidth=2;strokeColor=#FFFFFF;" edge="1" parent="1" source="RywcK7QeIOkxBo_Rkbx2-21" target="RywcK7QeIOkxBo_Rkbx2-33">
          <mxGeometry relative="1" as="geometry">
            <Array as="points">
              <mxPoint x="1370" y="1159" />
              <mxPoint x="1370" y="1159" />
            </Array>
          </mxGeometry>
        </mxCell>
        <mxCell id="RywcK7QeIOkxBo_Rkbx2-44" style="edgeStyle=orthogonalEdgeStyle;rounded=0;orthogonalLoop=1;jettySize=auto;html=1;exitX=0.5;exitY=1;exitDx=0;exitDy=0;entryX=1;entryY=1;entryDx=0;entryDy=0;strokeColor=#FF0000;strokeWidth=2;" edge="1" parent="1" source="RywcK7QeIOkxBo_Rkbx2-21" target="RywcK7QeIOkxBo_Rkbx2-18">
          <mxGeometry relative="1" as="geometry" />
        </mxCell>
        <mxCell id="RywcK7QeIOkxBo_Rkbx2-45" value="&lt;font style=&quot;font-size: 14px;&quot;&gt;Activities learned or paused&lt;/font&gt;" style="edgeLabel;html=1;align=center;verticalAlign=middle;resizable=0;points=[];" vertex="1" connectable="0" parent="RywcK7QeIOkxBo_Rkbx2-44">
          <mxGeometry x="0.1127" y="-2" relative="1" as="geometry">
            <mxPoint x="53" y="8" as="offset" />
          </mxGeometry>
        </mxCell>
        <mxCell id="RywcK7QeIOkxBo_Rkbx2-21" value="&lt;font style=&quot;font-size: 14px;&quot;&gt;Learning Activities and games&lt;/font&gt;" style="whiteSpace=wrap;html=1;dashed=0;fontColor=default;" vertex="1" parent="1">
          <mxGeometry x="1230" y="1124" width="140" height="70" as="geometry" />
        </mxCell>
        <mxCell id="RywcK7QeIOkxBo_Rkbx2-22" value="" style="edgeStyle=orthogonalEdgeStyle;rounded=0;orthogonalLoop=1;jettySize=auto;html=1;strokeWidth=2;strokeColor=#FFFFFF;exitX=0.5;exitY=1;exitDx=0;exitDy=0;entryX=0;entryY=0.5;entryDx=0;entryDy=0;" edge="1" parent="1" source="RywcK7QeIOkxBo_Rkbx2-18" target="RywcK7QeIOkxBo_Rkbx2-24">
          <mxGeometry relative="1" as="geometry">
            <mxPoint x="1070" y="1189" as="sourcePoint" />
            <Array as="points">
              <mxPoint x="1100" y="1400" />
            </Array>
          </mxGeometry>
        </mxCell>
        <mxCell id="RywcK7QeIOkxBo_Rkbx2-23" value="&lt;font style=&quot;font-size: 14px;&quot;&gt;Chatbot&lt;/font&gt;" style="whiteSpace=wrap;html=1;dashed=0;fontColor=default;" vertex="1" parent="1">
          <mxGeometry x="1240" y="1260" width="120" height="60" as="geometry" />
        </mxCell>
        <mxCell id="RywcK7QeIOkxBo_Rkbx2-48" style="edgeStyle=orthogonalEdgeStyle;rounded=0;orthogonalLoop=1;jettySize=auto;html=1;strokeWidth=2;strokeColor=#FF0000;exitX=0.5;exitY=1;exitDx=0;exitDy=0;" edge="1" parent="1" source="RywcK7QeIOkxBo_Rkbx2-24" target="RywcK7QeIOkxBo_Rkbx2-18">
          <mxGeometry relative="1" as="geometry">
            <Array as="points">
              <mxPoint x="1300" y="1459" />
              <mxPoint x="1090" y="1459" />
            </Array>
          </mxGeometry>
        </mxCell>
        <mxCell id="RywcK7QeIOkxBo_Rkbx2-50" value="&lt;font style=&quot;font-size: 14px;&quot;&gt;after updating settings or managing account preferences&lt;/font&gt;" style="edgeLabel;html=1;align=center;verticalAlign=middle;resizable=0;points=[];" vertex="1" connectable="0" parent="RywcK7QeIOkxBo_Rkbx2-48">
          <mxGeometry x="-0.7204" y="-2" relative="1" as="geometry">
            <mxPoint x="75" y="22" as="offset" />
          </mxGeometry>
        </mxCell>
        <mxCell id="RywcK7QeIOkxBo_Rkbx2-24" value="&lt;font style=&quot;font-size: 14px;&quot;&gt;Settings&lt;/font&gt;" style="whiteSpace=wrap;html=1;dashed=0;fontColor=default;" vertex="1" parent="1">
          <mxGeometry x="1240" y="1370" width="120" height="60" as="geometry" />
        </mxCell>
        <mxCell id="RywcK7QeIOkxBo_Rkbx2-25" value="" style="edgeStyle=orthogonalEdgeStyle;rounded=0;orthogonalLoop=1;jettySize=auto;html=1;strokeWidth=2;strokeColor=#FFFFFF;" edge="1" parent="1" source="RywcK7QeIOkxBo_Rkbx2-27" target="RywcK7QeIOkxBo_Rkbx2-29">
          <mxGeometry relative="1" as="geometry">
            <Array as="points">
              <mxPoint x="928" y="826" />
            </Array>
          </mxGeometry>
        </mxCell>
        <mxCell id="RywcK7QeIOkxBo_Rkbx2-26" value="" style="edgeStyle=orthogonalEdgeStyle;rounded=0;orthogonalLoop=1;jettySize=auto;html=1;strokeWidth=2;strokeColor=#FFFFFF;" edge="1" parent="1" source="RywcK7QeIOkxBo_Rkbx2-27" target="RywcK7QeIOkxBo_Rkbx2-38">
          <mxGeometry relative="1" as="geometry" />
        </mxCell>
        <mxCell id="RywcK7QeIOkxBo_Rkbx2-27" value="&lt;font style=&quot;font-size: 14px;&quot;&gt;Home Screen/ Dashboad&lt;/font&gt;" style="whiteSpace=wrap;html=1;dashed=0;" vertex="1" parent="1">
          <mxGeometry x="840" y="929" width="120" height="60" as="geometry" />
        </mxCell>
        <mxCell id="RywcK7QeIOkxBo_Rkbx2-28" value="" style="edgeStyle=orthogonalEdgeStyle;rounded=0;orthogonalLoop=1;jettySize=auto;html=1;strokeWidth=2;strokeColor=#FFFFFF;entryX=0.5;entryY=0;entryDx=0;entryDy=0;exitX=0.25;exitY=0;exitDx=0;exitDy=0;" edge="1" parent="1" source="RywcK7QeIOkxBo_Rkbx2-27" target="RywcK7QeIOkxBo_Rkbx2-37">
          <mxGeometry relative="1" as="geometry">
            <mxPoint x="1100" y="849" as="targetPoint" />
            <Array as="points">
              <mxPoint x="866" y="929" />
              <mxPoint x="866" y="730" />
              <mxPoint x="1638" y="730" />
            </Array>
          </mxGeometry>
        </mxCell>
        <mxCell id="RywcK7QeIOkxBo_Rkbx2-56" value="" style="edgeStyle=orthogonalEdgeStyle;rounded=0;orthogonalLoop=1;jettySize=auto;html=1;" edge="1" parent="1" source="RywcK7QeIOkxBo_Rkbx2-29" target="RywcK7QeIOkxBo_Rkbx2-55">
          <mxGeometry relative="1" as="geometry" />
        </mxCell>
        <mxCell id="RywcK7QeIOkxBo_Rkbx2-57" style="edgeStyle=orthogonalEdgeStyle;rounded=0;orthogonalLoop=1;jettySize=auto;html=1;exitX=1;exitY=0.5;exitDx=0;exitDy=0;entryX=0;entryY=0.5;entryDx=0;entryDy=0;strokeColor=#FFFFFF;strokeWidth=2;" edge="1" parent="1" source="RywcK7QeIOkxBo_Rkbx2-29" target="RywcK7QeIOkxBo_Rkbx2-55">
          <mxGeometry relative="1" as="geometry" />
        </mxCell>
        <mxCell id="RywcK7QeIOkxBo_Rkbx2-61" style="edgeStyle=orthogonalEdgeStyle;rounded=0;orthogonalLoop=1;jettySize=auto;html=1;exitX=0.5;exitY=0;exitDx=0;exitDy=0;entryX=0.5;entryY=0;entryDx=0;entryDy=0;strokeColor=#FF0000;strokeWidth=2;" edge="1" parent="1" source="RywcK7QeIOkxBo_Rkbx2-29" target="RywcK7QeIOkxBo_Rkbx2-27">
          <mxGeometry relative="1" as="geometry" />
        </mxCell>
        <mxCell id="RywcK7QeIOkxBo_Rkbx2-62" value="&lt;font style=&quot;font-size: 14px;&quot;&gt;Return after viewing&lt;/font&gt;" style="edgeLabel;html=1;align=center;verticalAlign=middle;resizable=0;points=[];" vertex="1" connectable="0" parent="RywcK7QeIOkxBo_Rkbx2-61">
          <mxGeometry x="-0.0871" y="2" relative="1" as="geometry">
            <mxPoint x="-1" as="offset" />
          </mxGeometry>
        </mxCell>
        <mxCell id="RywcK7QeIOkxBo_Rkbx2-29" value="&lt;font style=&quot;font-size: 14px;&quot;&gt;View Progress Report&lt;/font&gt;" style="whiteSpace=wrap;html=1;dashed=0;" vertex="1" parent="1">
          <mxGeometry x="1040" y="791" width="120" height="60" as="geometry" />
        </mxCell>
        <mxCell id="RywcK7QeIOkxBo_Rkbx2-30" value="" style="edgeStyle=orthogonalEdgeStyle;rounded=0;orthogonalLoop=1;jettySize=auto;html=1;" edge="1" parent="1" source="RywcK7QeIOkxBo_Rkbx2-33">
          <mxGeometry relative="1" as="geometry">
            <mxPoint x="1480" y="1049" as="targetPoint" />
          </mxGeometry>
        </mxCell>
        <mxCell id="RywcK7QeIOkxBo_Rkbx2-31" style="edgeStyle=orthogonalEdgeStyle;rounded=0;orthogonalLoop=1;jettySize=auto;html=1;entryX=0.5;entryY=1;entryDx=0;entryDy=0;strokeWidth=2;strokeColor=#FFFFFF;" edge="1" parent="1" source="RywcK7QeIOkxBo_Rkbx2-33" target="RywcK7QeIOkxBo_Rkbx2-29">
          <mxGeometry relative="1" as="geometry">
            <Array as="points">
              <mxPoint x="1480" y="909" />
              <mxPoint x="1100" y="909" />
            </Array>
          </mxGeometry>
        </mxCell>
        <mxCell id="RywcK7QeIOkxBo_Rkbx2-32" value="" style="edgeStyle=orthogonalEdgeStyle;rounded=0;orthogonalLoop=1;jettySize=auto;html=1;strokeWidth=2;strokeColor=#FFFFFF;exitX=0.25;exitY=1;exitDx=0;exitDy=0;" edge="1" parent="1" source="RywcK7QeIOkxBo_Rkbx2-18" target="RywcK7QeIOkxBo_Rkbx2-37">
          <mxGeometry relative="1" as="geometry">
            <Array as="points">
              <mxPoint x="1070" y="1520" />
              <mxPoint x="1638" y="1520" />
            </Array>
          </mxGeometry>
        </mxCell>
        <mxCell id="RywcK7QeIOkxBo_Rkbx2-33" value="&lt;font style=&quot;font-size: 14px;&quot;&gt;When completed Activity&lt;/font&gt;" style="whiteSpace=wrap;html=1;dashed=0;fontColor=default;" vertex="1" parent="1">
          <mxGeometry x="1420" y="1129" width="120" height="60" as="geometry" />
        </mxCell>
        <mxCell id="RywcK7QeIOkxBo_Rkbx2-34" style="edgeStyle=orthogonalEdgeStyle;rounded=0;orthogonalLoop=1;jettySize=auto;html=1;exitX=0.5;exitY=1;exitDx=0;exitDy=0;" edge="1" parent="1" source="RywcK7QeIOkxBo_Rkbx2-35">
          <mxGeometry relative="1" as="geometry">
            <mxPoint x="1408.2307316706729" y="876.0000093900239" as="targetPoint" />
          </mxGeometry>
        </mxCell>
        <mxCell id="RywcK7QeIOkxBo_Rkbx2-35" value="&lt;font style=&quot;font-size: 14px;&quot; color=&quot;#ffffff&quot;&gt;Result updated in&lt;/font&gt;" style="text;strokeColor=none;align=center;fillColor=none;html=1;verticalAlign=middle;whiteSpace=wrap;rounded=0;" vertex="1" parent="1">
          <mxGeometry x="1310" y="908" width="140" height="30" as="geometry" />
        </mxCell>
        <mxCell id="RywcK7QeIOkxBo_Rkbx2-36" value="&lt;font color=&quot;#ffffff&quot; style=&quot;font-size: 14px;&quot;&gt;Start&lt;/font&gt;" style="text;strokeColor=none;align=center;fillColor=none;html=1;verticalAlign=middle;whiteSpace=wrap;rounded=0;" vertex="1" parent="1">
          <mxGeometry x="140" y="1111" width="60" height="30" as="geometry" />
        </mxCell>
        <mxCell id="RywcK7QeIOkxBo_Rkbx2-52" style="edgeStyle=orthogonalEdgeStyle;rounded=0;orthogonalLoop=1;jettySize=auto;html=1;exitX=1;exitY=0.5;exitDx=0;exitDy=0;entryX=0;entryY=0.5;entryDx=0;entryDy=0;strokeColor=#FFFFFF;strokeWidth=2;" edge="1" parent="1" source="RywcK7QeIOkxBo_Rkbx2-37" target="RywcK7QeIOkxBo_Rkbx2-51">
          <mxGeometry relative="1" as="geometry" />
        </mxCell>
        <mxCell id="RywcK7QeIOkxBo_Rkbx2-37" value="&lt;span style=&quot;font-size: 14px;&quot;&gt;Logout&lt;/span&gt;" style="whiteSpace=wrap;html=1;dashed=0;fontColor=default;" vertex="1" parent="1">
          <mxGeometry x="1578" y="1129" width="120" height="60" as="geometry" />
        </mxCell>
        <mxCell id="RywcK7QeIOkxBo_Rkbx2-66" style="edgeStyle=orthogonalEdgeStyle;rounded=0;orthogonalLoop=1;jettySize=auto;html=1;exitX=0.5;exitY=1;exitDx=0;exitDy=0;entryX=0.5;entryY=1;entryDx=0;entryDy=0;strokeColor=#FF0000;strokeWidth=2;" edge="1" parent="1" source="RywcK7QeIOkxBo_Rkbx2-38" target="RywcK7QeIOkxBo_Rkbx2-27">
          <mxGeometry relative="1" as="geometry" />
        </mxCell>
        <mxCell id="RywcK7QeIOkxBo_Rkbx2-38" value="&lt;span style=&quot;font-size: 14px;&quot;&gt;Feedback&lt;/span&gt;" style="whiteSpace=wrap;html=1;dashed=0;" vertex="1" parent="1">
          <mxGeometry x="1033" y="929" width="120" height="60" as="geometry" />
        </mxCell>
        <mxCell id="RywcK7QeIOkxBo_Rkbx2-46" style="edgeStyle=orthogonalEdgeStyle;rounded=0;orthogonalLoop=1;jettySize=auto;html=1;entryX=0.609;entryY=0.962;entryDx=0;entryDy=0;entryPerimeter=0;strokeColor=#FF0000;strokeWidth=2;exitX=0.5;exitY=1;exitDx=0;exitDy=0;" edge="1" parent="1" source="RywcK7QeIOkxBo_Rkbx2-23" target="RywcK7QeIOkxBo_Rkbx2-18">
          <mxGeometry relative="1" as="geometry">
            <Array as="points">
              <mxPoint x="1300" y="1337" />
              <mxPoint x="1113" y="1337" />
            </Array>
          </mxGeometry>
        </mxCell>
        <mxCell id="RywcK7QeIOkxBo_Rkbx2-47" value="&lt;font style=&quot;font-size: 14px;&quot;&gt;Queries asked&lt;/font&gt;" style="edgeLabel;html=1;align=center;verticalAlign=middle;resizable=0;points=[];" vertex="1" connectable="0" parent="RywcK7QeIOkxBo_Rkbx2-46">
          <mxGeometry x="-0.7828" y="1" relative="1" as="geometry">
            <mxPoint x="-32" y="9" as="offset" />
          </mxGeometry>
        </mxCell>
        <mxCell id="RywcK7QeIOkxBo_Rkbx2-51" value="&lt;font style=&quot;font-size: 14px;&quot;&gt;Exit&lt;/font&gt;" style="ellipse;html=1;shape=endState;fillColor=#FFFFFF;strokeColor=#ff0000;strokeWidth=3;" vertex="1" parent="1">
          <mxGeometry x="1774" y="1131" width="59" height="56" as="geometry" />
        </mxCell>
        <mxCell id="RywcK7QeIOkxBo_Rkbx2-59" value="" style="edgeStyle=orthogonalEdgeStyle;rounded=0;orthogonalLoop=1;jettySize=auto;html=1;" edge="1" parent="1" source="RywcK7QeIOkxBo_Rkbx2-55" target="RywcK7QeIOkxBo_Rkbx2-58">
          <mxGeometry relative="1" as="geometry" />
        </mxCell>
        <mxCell id="RywcK7QeIOkxBo_Rkbx2-60" style="edgeStyle=orthogonalEdgeStyle;rounded=0;orthogonalLoop=1;jettySize=auto;html=1;exitX=1;exitY=0.5;exitDx=0;exitDy=0;entryX=0;entryY=0.5;entryDx=0;entryDy=0;strokeColor=#FFFFFF;strokeWidth=2;" edge="1" parent="1" source="RywcK7QeIOkxBo_Rkbx2-55" target="RywcK7QeIOkxBo_Rkbx2-58">
          <mxGeometry relative="1" as="geometry" />
        </mxCell>
        <mxCell id="RywcK7QeIOkxBo_Rkbx2-55" value="&lt;font style=&quot;font-size: 14px;&quot;&gt;Generate Progress Report&lt;/font&gt;" style="whiteSpace=wrap;html=1;dashed=0;" vertex="1" parent="1">
          <mxGeometry x="1240" y="791" width="120" height="60" as="geometry" />
        </mxCell>
        <mxCell id="RywcK7QeIOkxBo_Rkbx2-63" style="edgeStyle=orthogonalEdgeStyle;rounded=0;orthogonalLoop=1;jettySize=auto;html=1;exitX=1;exitY=0.5;exitDx=0;exitDy=0;entryX=0.5;entryY=0;entryDx=0;entryDy=0;strokeColor=#FFFFFF;strokeWidth=2;" edge="1" parent="1" source="RywcK7QeIOkxBo_Rkbx2-58" target="RywcK7QeIOkxBo_Rkbx2-51">
          <mxGeometry relative="1" as="geometry" />
        </mxCell>
        <mxCell id="RywcK7QeIOkxBo_Rkbx2-64" style="edgeStyle=orthogonalEdgeStyle;rounded=0;orthogonalLoop=1;jettySize=auto;html=1;exitX=0.5;exitY=1;exitDx=0;exitDy=0;entryX=1;entryY=0;entryDx=0;entryDy=0;strokeColor=#FF0000;strokeWidth=2;" edge="1" parent="1" source="RywcK7QeIOkxBo_Rkbx2-58" target="RywcK7QeIOkxBo_Rkbx2-27">
          <mxGeometry relative="1" as="geometry" />
        </mxCell>
        <mxCell id="RywcK7QeIOkxBo_Rkbx2-65" value="&lt;font style=&quot;font-size: 14px;&quot;&gt;After saving report&lt;/font&gt;" style="edgeLabel;html=1;align=center;verticalAlign=middle;resizable=0;points=[];" vertex="1" connectable="0" parent="RywcK7QeIOkxBo_Rkbx2-64">
          <mxGeometry x="-0.1642" y="-7" relative="1" as="geometry">
            <mxPoint as="offset" />
          </mxGeometry>
        </mxCell>
        <mxCell id="RywcK7QeIOkxBo_Rkbx2-58" value="&lt;font style=&quot;font-size: 14px;&quot;&gt;Can save Progress Report&lt;/font&gt;" style="whiteSpace=wrap;html=1;dashed=0;" vertex="1" parent="1">
          <mxGeometry x="1440" y="791" width="120" height="60" as="geometry" />
        </mxCell>
      </root>
    </mxGraphModel>
  </diagram>
</mxfile>
